<?xml version="1.0" standalone="no"?>
<!DOCTYPE svg PUBLIC "-//W3C//DTD SVG 1.1//EN"
  "http://www.w3.org/Graphics/SVG/1.1/DTD/svg11.dtd">
<!-- Created with matplotlib (http://matplotlib.sourceforge.net/) -->
<svg width="586pt" height="442pt" viewBox="0 0 586 442"
   xmlns="http://www.w3.org/2000/svg"
   xmlns:xlink="http://www.w3.org/1999/xlink"
   version="1.1"
   id="svg1">
<filter id="colorAdd"><feComposite in="SourceGraphic" in2="BackgroundImage" operator="arithmetic" k2="1" k3="1"/></filter>
<g id="figure1">
<g id="patch1">
<path style="fill: #ffffff; stroke: #ffffff; stroke-width: 1.000000; stroke-linejoin: round; stroke-linecap: square;  opacity: 1.000000"  d="M0.000000 442.800000L586.800000 442.800000L586.800000 0.000000
L0.000000 0.000000z"/>
</g>
<g id="axes1">
<g id="patch2">
<path style="fill: #ffffff; opacity: 1.000000"  d="M73.350000 398.520000L528.120000 398.520000L528.120000 44.280000
L73.350000 44.280000z"/>
</g>
<g id="line2d1">
<defs>
  <clipPath id="p2105d4d122201762fd65f95470f6173f">
<rect x="73.350000" y="44.280000" width="454.770000" height="354.240000"/>
  </clipPath>
</defs><path style="fill: none; stroke: #0000ff; stroke-width: 1.000000; stroke-linejoin: round; stroke-linecap: square;  opacity: 1.000000" clip-path="url(#p2105d4d122201762fd65f95470f6173f)" d="M73.350000 100.389847L525.846150 100.389847L525.846150 100.389847"/>
</g>
<g id="line2d2">
<path style="fill: none; stroke: #008000; stroke-width: 1.000000; stroke-linejoin: round; stroke-linecap: square;  opacity: 1.000000" clip-path="url(#p2105d4d122201762fd65f95470f6173f)" d="M73.350000 345.594393L525.846150 98.447550L525.846150 98.447550"/>
</g>
<g id="line2d3">
<path style="fill: none; stroke: #ff0000; stroke-width: 1.000000; stroke-linejoin: round; stroke-linecap: square;  opacity: 1.000000" clip-path="url(#p2105d4d122201762fd65f95470f6173f)" d="M73.350000 90.484094L80.171550 105.212774L86.993100 119.492865
L93.814650 133.324367L100.636200 146.707279L107.457750 159.641603
L114.279300 172.127337L121.100850 184.164481L127.922400 195.753037
L134.743950 206.893003L141.565500 217.584380L148.387050 227.827167
L155.208600 237.621366L162.030150 246.966975L168.851700 255.863995
L175.673250 264.312426L182.494800 272.312267L189.316350 279.863520
L196.137900 286.966183L202.959450 293.620256L209.781000 299.825741
L214.328700 303.713514L218.876400 307.401915L223.424100 310.890942
L227.971800 314.180597L232.519500 317.270878L237.067200 320.161787
L241.614900 322.853322L246.162600 325.345484L250.710300 327.638274
L255.258000 329.731690L259.805700 331.625734L264.353400 333.320404
L268.901100 334.815702L273.448800 336.111626L277.996500 337.208178
L282.544200 338.105356L287.091900 338.803162L291.639600 339.301594
L296.187300 339.600654L300.735000 339.700340L305.282700 339.600654
L309.830400 339.301594L314.378100 338.803162L318.925800 338.105356
L323.473500 337.208178L328.021200 336.111626L332.568900 334.815702
L337.116600 333.320404L341.664300 331.625734L346.212000 329.731690
L350.759700 327.638274L355.307400 325.345484L359.855100 322.853322
L364.402800 320.161787L368.950500 317.270878L373.498200 314.180597
L378.045900 310.890942L382.593600 307.401915L387.141300 303.713514
L391.689000 299.825741L396.236700 295.738594L403.058250 289.234050
L409.879800 282.280917L416.701350 274.879195L423.522900 267.028883
L430.344450 258.729982L437.166000 249.982492L443.987550 240.786412
L450.809100 231.141744L457.630650 221.048486L464.452200 210.506638
L471.273750 199.516202L478.095300 188.077176L484.916850 176.189561
L491.738400 163.853357L498.559950 151.068564L505.381500 137.835181
L512.203050 124.153209L519.024600 110.022648L525.846150 95.443498
L525.846150 95.443498"/>
</g>
<g id="line2d4">
<path style="fill: none; stroke: #00bfbf; stroke-width: 1.000000; stroke-linejoin: round; stroke-linecap: square;  opacity: 1.000000" clip-path="url(#p2105d4d122201762fd65f95470f6173f)" d="M73.350000 360.041304L75.623850 348.793196L77.897700 337.842426
L82.445400 316.820884L86.993100 296.952652L91.540800 278.213702
L96.088500 260.580006L100.636200 244.027538L105.183900 228.532270
L109.731600 214.070175L114.279300 200.617225L118.827000 188.149393
L123.374700 176.642653L127.922400 166.072976L132.470100 156.416336
L137.017800 147.648705L141.565500 139.746055L146.113200 132.684361
L148.387050 129.461363L150.660900 126.439594L152.934750 123.616049
L155.208600 120.987726L157.482450 118.551622L159.756300 116.304732
L162.030150 114.244053L164.304000 112.366583L166.577850 110.669317
L168.851700 109.149252L171.125550 107.803385L173.399400 106.628713
L175.673250 105.622231L177.947100 104.780937L180.220950 104.101826
L182.494800 103.581897L184.768650 103.218145L187.042500 103.007567
L189.316350 102.947159L191.590200 103.033918L193.864050 103.264841
L196.137900 103.636924L198.411750 104.147164L200.685600 104.792558
L202.959450 105.570101L205.233300 106.476791L207.507150 107.509624
L212.054850 109.941706L216.602550 112.842321L221.150250 116.187439
L225.697950 119.953036L230.245650 124.115082L234.793350 128.649551
L239.341050 133.532415L243.888750 138.739648L248.436450 144.247221
L252.984150 150.031108L259.805700 159.172468L266.627250 168.800379
L273.448800 178.833751L282.544200 192.702137L293.913450 210.555708
L318.925800 250.097863L328.021200 263.966249L334.842750 273.999621
L341.664300 283.627532L348.485850 292.768892L353.033550 298.552779
L357.581250 304.060352L362.128950 309.267585L366.676650 314.150449
L371.224350 318.684918L375.772050 322.846964L380.319750 326.612561
L384.867450 329.957679L389.415150 332.858294L393.962850 335.290376
L396.236700 336.323209L398.510550 337.229899L400.784400 338.007442
L403.058250 338.652836L405.332100 339.163076L407.605950 339.535159
L409.879800 339.766082L412.153650 339.852841L414.427500 339.792433
L416.701350 339.581855L418.975200 339.218103L421.249050 338.698174
L423.522900 338.019063L425.796750 337.177769L428.070600 336.171287
L430.344450 334.996615L432.618300 333.650748L434.892150 332.130683
L437.166000 330.433417L439.439850 328.555947L441.713700 326.495268
L443.987550 324.248378L446.261400 321.812274L448.535250 319.183951
L450.809100 316.360406L453.082950 313.338637L455.356800 310.115639
L457.630650 306.688410L459.904500 303.053945L464.452200 295.151295
L468.999900 286.383664L473.547600 276.727024L478.095300 266.157347
L482.643000 254.650607L487.190700 242.182775L491.738400 228.729825
L496.286100 214.267730L500.833800 198.772462L505.381500 182.219994
L509.929200 164.586298L514.476900 145.847348L519.024600 125.979116
L523.572300 104.957574L525.846150 94.006804L525.846150 94.006804"/>
</g>
<g id="line2d5">
<path style="fill: none; stroke: #bf00bf; stroke-width: 1.000000; stroke-linejoin: round; stroke-linecap: square;  opacity: 1.000000" clip-path="url(#p2105d4d122201762fd65f95470f6173f)" d="M73.350000 73.646662L75.623850 93.865814L77.897700 113.096350
L80.171550 131.362071L82.445400 148.686534L84.719250 165.093058
L86.993100 180.604716L89.266950 195.244344L91.540800 209.034534
L93.814650 221.997635L96.088500 234.155756L98.362350 245.530765
L100.636200 256.144288L102.910050 266.017709L105.183900 275.172169
L107.457750 283.628569L109.731600 291.407569L112.005450 298.529586
L114.279300 305.014797L116.553150 310.883134L118.827000 316.154291
L121.100850 320.847719L123.374700 324.982627L125.648550 328.577982
L127.922400 331.652512L130.196250 334.224700L132.470100 336.312788
L134.743950 337.934780L137.017800 339.108433L139.291650 339.851266
L141.565500 340.180555L143.839350 340.113336L146.113200 339.666400
L148.387050 338.856299L150.660900 337.699344L152.934750 336.211603
L155.208600 334.408901L157.482450 332.306824L159.756300 329.920715
L162.030150 327.265677L164.304000 324.356568L166.577850 321.208008
L168.851700 317.834373L173.399400 310.468178L177.947100 302.368164
L182.494800 293.640648L187.042500 284.388079L191.590200 274.709042
L198.411750 259.596995L207.507150 238.806572L221.150250 207.574446
L227.971800 192.478131L234.793350 178.026242L239.341050 168.848730
L243.888750 160.100591L248.436450 151.832085L252.984150 144.089604
L257.531850 136.915673L262.079550 130.348954L266.627250 124.424240
L271.174950 119.172460L273.448800 116.807528L275.722650 114.620675
L277.996500 112.614681L280.270350 110.792083L282.544200 109.155176
L284.818050 107.706013L287.091900 106.446407L289.365750 105.377929
L291.639600 104.501908L293.913450 103.819430L296.187300 103.331342
L298.461150 103.038248L300.735000 102.940509L303.008850 103.038248
L305.282700 103.331342L307.556550 103.819430L309.830400 104.501908
L312.104250 105.377929L314.378100 106.446407L316.651950 107.706013
L318.925800 109.155176L321.199650 110.792083L323.473500 112.614681
L325.747350 114.620675L328.021200 116.807528L330.295050 119.172460
L332.568900 121.712451L337.116600 127.304323L341.664300 133.554147
L346.212000 140.429063L350.759700 147.892343L355.307400 155.903394
L359.855100 164.417757L364.402800 173.387106L368.950500 182.759250
L375.772050 197.449023L382.593600 212.712546L396.236700 244.040965
L405.332100 264.698254L412.153650 279.595859L416.701350 289.073743
L421.249050 298.076350L425.796750 306.503163L430.344450 314.249798
L432.618300 317.834373L434.892150 321.208008L437.166000 324.356568
L439.439850 327.265677L441.713700 329.920715L443.987550 332.306824
L446.261400 334.408901L448.535250 336.211603L450.809100 337.699344
L453.082950 338.856299L455.356800 339.666400L457.630650 340.113336
L459.904500 340.180555L462.178350 339.851266L464.452200 339.108433
L466.726050 337.934780L468.999900 336.312788L471.273750 334.224700
L473.547600 331.652512L475.821450 328.577982L478.095300 324.982627
L480.369150 320.847719L482.643000 316.154291L484.916850 310.883134
L487.190700 305.014797L489.464550 298.529586L491.738400 291.407569
L494.012250 283.628569L496.286100 275.172169L498.559950 266.017709
L500.833800 256.144288L503.107650 245.530765L505.381500 234.155756
L507.655350 221.997635L509.929200 209.034534L512.203050 195.244344
L514.476900 180.604716L516.750750 165.093058L519.024600 148.686534
L521.298450 131.362071L523.572300 113.096350L525.846150 93.865814
L525.846150 93.865814"/>
</g>
<g id="line2d6">
<path style="fill: none; stroke: #bfbf00; stroke-width: 1.000000; stroke-linejoin: round; stroke-linecap: square;  opacity: 1.000000" clip-path="url(#p2105d4d122201762fd65f95470f6173f)" d="M73.350000 380.258885L75.623850 348.209538L77.897700 318.629886
L80.171550 291.416634L82.445400 266.468875L84.719250 243.688064
L86.993100 222.977991L89.266950 204.244763L91.540800 187.396772
L93.814650 172.344676L96.088500 159.001375L98.362350 147.281982
L100.636200 137.103803L102.910050 128.386310L105.183900 121.051118
L107.457750 115.021962L109.731600 110.224669L112.005450 106.587136
L114.279300 104.039306L116.553150 102.513144L118.827000 101.942608
L121.100850 102.263632L123.374700 103.414097L125.648550 105.333806
L127.922400 107.964463L130.196250 111.249646L132.470100 115.134783
L134.743950 119.567131L137.017800 124.495745L139.291650 129.871461
L141.565500 135.646864L146.113200 148.215706L150.660900 161.857108
L155.208600 176.252399L164.304000 206.157747L173.399400 235.882611
L177.947100 250.139953L182.494800 263.751853L187.042500 276.563267
L191.590200 288.439408L196.137900 299.264968L198.411750 304.252882
L200.685600 308.943342L202.959450 313.327066L205.233300 317.395843
L207.507150 321.142511L209.781000 324.560928L212.054850 327.645952
L214.328700 330.393414L216.602550 332.800096L218.876400 334.863704
L221.150250 336.582846L223.424100 337.957005L225.697950 338.986517
L227.971800 339.672547L230.245650 340.017062L232.519500 340.022809
L234.793350 339.693288L237.067200 339.032733L239.341050 338.046082
L241.614900 336.738953L243.888750 335.117625L246.162600 333.189008
L248.436450 330.960621L250.710300 328.440568L252.984150 325.637511
L255.258000 322.560651L257.531850 319.219698L259.805700 315.624849
L262.079550 311.786765L266.627250 303.425698L271.174950 294.230106
L275.722650 284.299442L280.270350 273.738222L284.818050 262.655249
L291.639600 245.298946L303.008850 215.388240L312.104250 191.637168
L318.925800 174.544992L323.473500 163.709058L328.021200 153.449765
L332.568900 143.873870L337.116600 135.083456L339.390450 131.013235
L341.664300 127.175151L343.938150 123.580302L346.212000 120.239349
L348.485850 117.162489L350.759700 114.359432L353.033550 111.839379
L355.307400 109.610992L357.581250 107.682375L359.855100 106.061047
L362.128950 104.753918L364.402800 103.767267L366.676650 103.106712
L368.950500 102.777191L371.224350 102.782938L373.498200 103.127453
L375.772050 103.813483L378.045900 104.842995L380.319750 106.217154
L382.593600 107.936296L384.867450 109.999904L387.141300 112.406586
L389.415150 115.154048L391.689000 118.239072L393.962850 121.657489
L396.236700 125.404157L398.510550 129.472934L400.784400 133.856658
L403.058250 138.547118L405.332100 143.535032L409.879800 154.360592
L414.427500 166.236733L418.975200 179.048147L423.522900 192.660047
L428.070600 206.917389L434.892150 229.122482L446.261400 266.547601
L450.809100 280.942892L455.356800 294.584294L459.904500 307.153136
L462.178350 312.928539L464.452200 318.304255L466.726050 323.232869
L468.999900 327.665217L471.273750 331.550354L473.547600 334.835537
L475.821450 337.466194L478.095300 339.385903L480.369150 340.536368
L482.643000 340.857392L484.916850 340.286856L487.190700 338.760694
L489.464550 336.212864L491.738400 332.575331L494.012250 327.778038
L496.286100 321.748882L498.559950 314.413690L500.833800 305.696197
L503.107650 295.518018L505.381500 283.798625L507.655350 270.455324
L509.929200 255.403228L512.203050 238.555237L514.476900 219.822009
L516.750750 199.111936L519.024600 176.331125L521.298450 151.383366
L523.572300 124.170114L525.846150 94.590462L525.846150 94.590462"/>
</g>
<g id="matplotlib.axis1">
<g id="xtick1">
<g id="line2d7">
<defs><path id="m30e32995789d870ad79a2e54c91cf9c6" d="M0.000000 0.000000L0.000000 -4.000000"/></defs>
<g ><use style="fill: none; stroke: #000000; stroke-width: 0.500000; stroke-linejoin: round; stroke-linecap: butt;  opacity: 1.000000" xlink:href="#m30e32995789d870ad79a2e54c91cf9c6" x="73.350000" y="398.520000"/>
</g></g>
<g id="line2d8">
<defs><path id="m9281cae24120827b11d5ea8a7ad3e96b" d="M0.000000 0.000000L0.000000 4.000000"/></defs>
<g ><use style="fill: none; stroke: #000000; stroke-width: 0.500000; stroke-linejoin: round; stroke-linecap: butt;  opacity: 1.000000" xlink:href="#m9281cae24120827b11d5ea8a7ad3e96b" x="73.350000" y="44.280000"/>
</g></g>
<g id="text1">
<defs>
<path id="c_6a8d56c819c37117ab4cf023bec22a5a" d="M10.593750 -35.500000l62.593750 0.000000l0.000000 8.296875l-62.593750 0.000000z"/>
<path id="c_42baa63129a918535c52adb20d687ea7" d="M12.406250 -8.296875l16.109375 0.000000l0.000000 -55.625000l-17.531250 3.515625l0.000000 -8.984375l17.437500 -3.515625l9.859375 0.000000l0.000000 64.609375l16.109375 0.000000l0.000000 8.296875l-41.984375 0.000000z"/>
<path id="c_ed3e21196fb739f392806f09ca0594ef" d="M10.687500 -12.406250l10.312500 0.000000l0.000000 12.406250l-10.312500 0.000000z"/>
<path id="c_7a2040fe3b94fcd41d0a72c84e93b115" d="M31.781250 -66.406250q-7.609375 0.000000 -11.453125 7.500000q-3.828125 7.484375 -3.828125 22.531250q0.000000 14.984375 3.828125 22.484375q3.843750 7.500000 11.453125 7.500000q7.671875 0.000000 11.500000 -7.500000q3.843750 -7.500000 3.843750 -22.484375q0.000000 -15.046875 -3.843750 -22.531250q-3.828125 -7.500000 -11.500000 -7.500000M31.781250 -74.218750q12.265625 0.000000 18.734375 9.703125q6.468750 9.687500 6.468750 28.140625q0.000000 18.406250 -6.468750 28.109375q-6.468750 9.687500 -18.734375 9.687500q-12.250000 0.000000 -18.718750 -9.687500q-6.468750 -9.703125 -6.468750 -28.109375q0.000000 -18.453125 6.468750 -28.140625q6.468750 -9.703125 18.718750 -9.703125"/>
</defs>
<g style="fill: #000000; opacity: 1.000000" transform="translate(59.803125,411.426250)scale(0.120000)">
<use xlink:href="#c_6a8d56c819c37117ab4cf023bec22a5a"/>
<use xlink:href="#c_42baa63129a918535c52adb20d687ea7" x="83.789062"/>
<use xlink:href="#c_ed3e21196fb739f392806f09ca0594ef" x="147.412109"/>
<use xlink:href="#c_7a2040fe3b94fcd41d0a72c84e93b115" x="179.199219"/>
</g>
</g>
</g>
<g id="xtick2">
<g id="line2d9">
<g ><use style="fill: none; stroke: #000000; stroke-width: 0.500000; stroke-linejoin: round; stroke-linecap: butt;  opacity: 1.000000" xlink:href="#m30e32995789d870ad79a2e54c91cf9c6" x="187.042500" y="398.520000"/>
</g></g>
<g id="line2d10">
<g ><use style="fill: none; stroke: #000000; stroke-width: 0.500000; stroke-linejoin: round; stroke-linecap: butt;  opacity: 1.000000" xlink:href="#m9281cae24120827b11d5ea8a7ad3e96b" x="187.042500" y="44.280000"/>
</g></g>
<g id="text2">
<defs>
<path id="c_1260a2df50f305f3db244e29828f968e" d="M10.796875 -72.906250l38.718750 0.000000l0.000000 8.312500l-29.687500 0.000000l0.000000 17.859375q2.140625 -0.734375 4.281250 -1.093750q2.156250 -0.359375 4.312500 -0.359375q12.203125 0.000000 19.328125 6.687500q7.140625 6.687500 7.140625 18.109375q0.000000 11.765625 -7.328125 18.296875q-7.328125 6.515625 -20.656250 6.515625q-4.593750 0.000000 -9.359375 -0.781250q-4.750000 -0.781250 -9.828125 -2.343750l0.000000 -9.921875q4.390625 2.390625 9.078125 3.562500q4.687500 1.171875 9.906250 1.171875q8.453125 0.000000 13.375000 -4.437500q4.937500 -4.437500 4.937500 -12.062500q0.000000 -7.609375 -4.937500 -12.046875q-4.921875 -4.453125 -13.375000 -4.453125q-3.953125 0.000000 -7.890625 0.875000q-3.921875 0.875000 -8.015625 2.734375z"/>
</defs>
<g style="fill: #000000; opacity: 1.000000" transform="translate(173.620625,411.426250)scale(0.120000)">
<use xlink:href="#c_6a8d56c819c37117ab4cf023bec22a5a"/>
<use xlink:href="#c_7a2040fe3b94fcd41d0a72c84e93b115" x="83.789062"/>
<use xlink:href="#c_ed3e21196fb739f392806f09ca0594ef" x="147.412109"/>
<use xlink:href="#c_1260a2df50f305f3db244e29828f968e" x="179.199219"/>
</g>
</g>
</g>
<g id="xtick3">
<g id="line2d11">
<g ><use style="fill: none; stroke: #000000; stroke-width: 0.500000; stroke-linejoin: round; stroke-linecap: butt;  opacity: 1.000000" xlink:href="#m30e32995789d870ad79a2e54c91cf9c6" x="300.735000" y="398.520000"/>
</g></g>
<g id="line2d12">
<g ><use style="fill: none; stroke: #000000; stroke-width: 0.500000; stroke-linejoin: round; stroke-linecap: butt;  opacity: 1.000000" xlink:href="#m9281cae24120827b11d5ea8a7ad3e96b" x="300.735000" y="44.280000"/>
</g></g>
<g id="text3">
<g style="fill: #000000; opacity: 1.000000" transform="translate(291.985000,411.426250)scale(0.120000)">
<use xlink:href="#c_7a2040fe3b94fcd41d0a72c84e93b115"/>
<use xlink:href="#c_ed3e21196fb739f392806f09ca0594ef" x="63.623047"/>
<use xlink:href="#c_7a2040fe3b94fcd41d0a72c84e93b115" x="95.410156"/>
</g>
</g>
</g>
<g id="xtick4">
<g id="line2d13">
<g ><use style="fill: none; stroke: #000000; stroke-width: 0.500000; stroke-linejoin: round; stroke-linecap: butt;  opacity: 1.000000" xlink:href="#m30e32995789d870ad79a2e54c91cf9c6" x="414.427500" y="398.520000"/>
</g></g>
<g id="line2d14">
<g ><use style="fill: none; stroke: #000000; stroke-width: 0.500000; stroke-linejoin: round; stroke-linecap: butt;  opacity: 1.000000" xlink:href="#m9281cae24120827b11d5ea8a7ad3e96b" x="414.427500" y="44.280000"/>
</g></g>
<g id="text4">
<g style="fill: #000000; opacity: 1.000000" transform="translate(405.802500,411.426250)scale(0.120000)">
<use xlink:href="#c_7a2040fe3b94fcd41d0a72c84e93b115"/>
<use xlink:href="#c_ed3e21196fb739f392806f09ca0594ef" x="63.623047"/>
<use xlink:href="#c_1260a2df50f305f3db244e29828f968e" x="95.410156"/>
</g>
</g>
</g>
<g id="xtick5">
<g id="line2d15">
<g ><use style="fill: none; stroke: #000000; stroke-width: 0.500000; stroke-linejoin: round; stroke-linecap: butt;  opacity: 1.000000" xlink:href="#m30e32995789d870ad79a2e54c91cf9c6" x="528.120000" y="398.520000"/>
</g></g>
<g id="line2d16">
<g ><use style="fill: none; stroke: #000000; stroke-width: 0.500000; stroke-linejoin: round; stroke-linecap: butt;  opacity: 1.000000" xlink:href="#m9281cae24120827b11d5ea8a7ad3e96b" x="528.120000" y="44.280000"/>
</g></g>
<g id="text5">
<g style="fill: #000000; opacity: 1.000000" transform="translate(519.627813,411.426250)scale(0.120000)">
<use xlink:href="#c_42baa63129a918535c52adb20d687ea7"/>
<use xlink:href="#c_ed3e21196fb739f392806f09ca0594ef" x="63.623047"/>
<use xlink:href="#c_7a2040fe3b94fcd41d0a72c84e93b115" x="95.410156"/>
</g>
</g>
</g>
</g>
<g id="matplotlib.axis2">
<g id="ytick1">
<g id="line2d17">
<defs><path id="m3400efa6b1638b3fea9e19e898273957" d="M0.000000 0.000000L4.000000 0.000000"/></defs>
<g ><use style="fill: none; stroke: #000000; stroke-width: 0.500000; stroke-linejoin: round; stroke-linecap: butt;  opacity: 1.000000" xlink:href="#m3400efa6b1638b3fea9e19e898273957" x="73.350000" y="398.520000"/>
</g></g>
<g id="line2d18">
<defs><path id="m20b58b2501143cb5e0a5e8f1ef6f1643" d="M0.000000 0.000000L-4.000000 0.000000"/></defs>
<g ><use style="fill: none; stroke: #000000; stroke-width: 0.500000; stroke-linejoin: round; stroke-linecap: butt;  opacity: 1.000000" xlink:href="#m20b58b2501143cb5e0a5e8f1ef6f1643" x="528.120000" y="398.520000"/>
</g></g>
<g id="text6">
<g style="fill: #000000; opacity: 1.000000" transform="translate(42.506250,402.809062)scale(0.120000)">
<use xlink:href="#c_6a8d56c819c37117ab4cf023bec22a5a"/>
<use xlink:href="#c_42baa63129a918535c52adb20d687ea7" x="83.789062"/>
<use xlink:href="#c_ed3e21196fb739f392806f09ca0594ef" x="147.412109"/>
<use xlink:href="#c_1260a2df50f305f3db244e29828f968e" x="179.199219"/>
</g>
</g>
</g>
<g id="ytick2">
<g id="line2d19">
<g ><use style="fill: none; stroke: #000000; stroke-width: 0.500000; stroke-linejoin: round; stroke-linecap: butt;  opacity: 1.000000" xlink:href="#m3400efa6b1638b3fea9e19e898273957" x="73.350000" y="339.480000"/>
</g></g>
<g id="line2d20">
<g ><use style="fill: none; stroke: #000000; stroke-width: 0.500000; stroke-linejoin: round; stroke-linecap: butt;  opacity: 1.000000" xlink:href="#m20b58b2501143cb5e0a5e8f1ef6f1643" x="528.120000" y="339.480000"/>
</g></g>
<g id="text7">
<g style="fill: #000000; opacity: 1.000000" transform="translate(42.256250,343.847188)scale(0.120000)">
<use xlink:href="#c_6a8d56c819c37117ab4cf023bec22a5a"/>
<use xlink:href="#c_42baa63129a918535c52adb20d687ea7" x="83.789062"/>
<use xlink:href="#c_ed3e21196fb739f392806f09ca0594ef" x="147.412109"/>
<use xlink:href="#c_7a2040fe3b94fcd41d0a72c84e93b115" x="179.199219"/>
</g>
</g>
</g>
<g id="ytick3">
<g id="line2d21">
<g ><use style="fill: none; stroke: #000000; stroke-width: 0.500000; stroke-linejoin: round; stroke-linecap: butt;  opacity: 1.000000" xlink:href="#m3400efa6b1638b3fea9e19e898273957" x="73.350000" y="280.440000"/>
</g></g>
<g id="line2d22">
<g ><use style="fill: none; stroke: #000000; stroke-width: 0.500000; stroke-linejoin: round; stroke-linecap: butt;  opacity: 1.000000" xlink:href="#m20b58b2501143cb5e0a5e8f1ef6f1643" x="528.120000" y="280.440000"/>
</g></g>
<g id="text8">
<g style="fill: #000000; opacity: 1.000000" transform="translate(42.506250,284.807187)scale(0.120000)">
<use xlink:href="#c_6a8d56c819c37117ab4cf023bec22a5a"/>
<use xlink:href="#c_7a2040fe3b94fcd41d0a72c84e93b115" x="83.789062"/>
<use xlink:href="#c_ed3e21196fb739f392806f09ca0594ef" x="147.412109"/>
<use xlink:href="#c_1260a2df50f305f3db244e29828f968e" x="179.199219"/>
</g>
</g>
</g>
<g id="ytick4">
<g id="line2d23">
<g ><use style="fill: none; stroke: #000000; stroke-width: 0.500000; stroke-linejoin: round; stroke-linecap: butt;  opacity: 1.000000" xlink:href="#m3400efa6b1638b3fea9e19e898273957" x="73.350000" y="221.400000"/>
</g></g>
<g id="line2d24">
<g ><use style="fill: none; stroke: #000000; stroke-width: 0.500000; stroke-linejoin: round; stroke-linecap: butt;  opacity: 1.000000" xlink:href="#m20b58b2501143cb5e0a5e8f1ef6f1643" x="528.120000" y="221.400000"/>
</g></g>
<g id="text9">
<g style="fill: #000000; opacity: 1.000000" transform="translate(51.850000,225.767187)scale(0.120000)">
<use xlink:href="#c_7a2040fe3b94fcd41d0a72c84e93b115"/>
<use xlink:href="#c_ed3e21196fb739f392806f09ca0594ef" x="63.623047"/>
<use xlink:href="#c_7a2040fe3b94fcd41d0a72c84e93b115" x="95.410156"/>
</g>
</g>
</g>
<g id="ytick5">
<g id="line2d25">
<g ><use style="fill: none; stroke: #000000; stroke-width: 0.500000; stroke-linejoin: round; stroke-linecap: butt;  opacity: 1.000000" xlink:href="#m3400efa6b1638b3fea9e19e898273957" x="73.350000" y="162.360000"/>
</g></g>
<g id="line2d26">
<g ><use style="fill: none; stroke: #000000; stroke-width: 0.500000; stroke-linejoin: round; stroke-linecap: butt;  opacity: 1.000000" xlink:href="#m20b58b2501143cb5e0a5e8f1ef6f1643" x="528.120000" y="162.360000"/>
</g></g>
<g id="text10">
<g style="fill: #000000; opacity: 1.000000" transform="translate(52.100000,166.727187)scale(0.120000)">
<use xlink:href="#c_7a2040fe3b94fcd41d0a72c84e93b115"/>
<use xlink:href="#c_ed3e21196fb739f392806f09ca0594ef" x="63.623047"/>
<use xlink:href="#c_1260a2df50f305f3db244e29828f968e" x="95.410156"/>
</g>
</g>
</g>
<g id="ytick6">
<g id="line2d27">
<g ><use style="fill: none; stroke: #000000; stroke-width: 0.500000; stroke-linejoin: round; stroke-linecap: butt;  opacity: 1.000000" xlink:href="#m3400efa6b1638b3fea9e19e898273957" x="73.350000" y="103.320000"/>
</g></g>
<g id="line2d28">
<g ><use style="fill: none; stroke: #000000; stroke-width: 0.500000; stroke-linejoin: round; stroke-linecap: butt;  opacity: 1.000000" xlink:href="#m20b58b2501143cb5e0a5e8f1ef6f1643" x="528.120000" y="103.320000"/>
</g></g>
<g id="text11">
<g style="fill: #000000; opacity: 1.000000" transform="translate(52.365625,107.687187)scale(0.120000)">
<use xlink:href="#c_42baa63129a918535c52adb20d687ea7"/>
<use xlink:href="#c_ed3e21196fb739f392806f09ca0594ef" x="63.623047"/>
<use xlink:href="#c_7a2040fe3b94fcd41d0a72c84e93b115" x="95.410156"/>
</g>
</g>
</g>
<g id="ytick7">
<g id="line2d29">
<g ><use style="fill: none; stroke: #000000; stroke-width: 0.500000; stroke-linejoin: round; stroke-linecap: butt;  opacity: 1.000000" xlink:href="#m3400efa6b1638b3fea9e19e898273957" x="73.350000" y="44.280000"/>
</g></g>
<g id="line2d30">
<g ><use style="fill: none; stroke: #000000; stroke-width: 0.500000; stroke-linejoin: round; stroke-linecap: butt;  opacity: 1.000000" xlink:href="#m20b58b2501143cb5e0a5e8f1ef6f1643" x="528.120000" y="44.280000"/>
</g></g>
<g id="text12">
<g style="fill: #000000; opacity: 1.000000" transform="translate(52.615625,48.569062)scale(0.120000)">
<use xlink:href="#c_42baa63129a918535c52adb20d687ea7"/>
<use xlink:href="#c_ed3e21196fb739f392806f09ca0594ef" x="63.623047"/>
<use xlink:href="#c_1260a2df50f305f3db244e29828f968e" x="95.410156"/>
</g>
</g>
</g>
</g>
<g id="patch3">
<path style="fill: none; stroke: #000000; stroke-width: 1.000000; stroke-linejoin: round; stroke-linecap: square;  opacity: 1.000000"  d="M73.350000 44.280000L528.120000 44.280000"/>
</g>
<g id="patch4">
<path style="fill: none; stroke: #000000; stroke-width: 1.000000; stroke-linejoin: round; stroke-linecap: square;  opacity: 1.000000"  d="M528.120000 398.520000L528.120000 44.280000"/>
</g>
<g id="patch5">
<path style="fill: none; stroke: #000000; stroke-width: 1.000000; stroke-linejoin: round; stroke-linecap: square;  opacity: 1.000000"  d="M73.350000 398.520000L528.120000 398.520000"/>
</g>
<g id="patch6">
<path style="fill: none; stroke: #000000; stroke-width: 1.000000; stroke-linejoin: round; stroke-linecap: square;  opacity: 1.000000"  d="M73.350000 398.520000L73.350000 44.280000"/>
</g>
</g>
</g>
</svg>
