<?xml version="1.0" standalone="no"?>
<!DOCTYPE svg PUBLIC "-//W3C//DTD SVG 1.1//EN"
  "http://www.w3.org/Graphics/SVG/1.1/DTD/svg11.dtd">
<!-- Created with matplotlib (http://matplotlib.sourceforge.net/) -->
<svg width="586pt" height="442pt" viewBox="0 0 586 442"
   xmlns="http://www.w3.org/2000/svg"
   xmlns:xlink="http://www.w3.org/1999/xlink"
   version="1.1"
   id="svg1">
<filter id="colorAdd"><feComposite in="SourceGraphic" in2="BackgroundImage" operator="arithmetic" k2="1" k3="1"/></filter>
<g id="figure1">
<g id="patch1">
<path style="fill: #ffffff; stroke: #ffffff; stroke-width: 1.000000; stroke-linejoin: round; stroke-linecap: square;  opacity: 1.000000"  d="M0.000000 442.800000L586.800000 442.800000L586.800000 0.000000
L0.000000 0.000000z"/>
</g>
<g id="axes1">
<g id="patch2">
<path style="fill: #ffffff; opacity: 1.000000"  d="M73.350000 398.520000L528.120000 398.520000L528.120000 44.280000
L73.350000 44.280000z"/>
</g>
<g id="line2d1">
<defs>
  <clipPath id="p2105d4d122201762fd65f95470f6173f">
<rect x="73.350000" y="44.280000" width="454.770000" height="354.240000"/>
  </clipPath>
</defs><path style="fill: none; stroke: #0000ff; stroke-width: 1.000000; stroke-linejoin: round; stroke-linecap: square;  opacity: 1.000000" clip-path="url(#p2105d4d122201762fd65f95470f6173f)" d="M73.350000 103.320000L525.846150 103.320000L525.846150 103.320000"/>
</g>
<g id="line2d2">
<path style="fill: none; stroke: #008000; stroke-width: 1.000000; stroke-linejoin: round; stroke-linecap: square;  opacity: 1.000000" clip-path="url(#p2105d4d122201762fd65f95470f6173f)" d="M73.350000 341.889502L525.846150 106.816277L525.846150 106.816277"/>
</g>
<g id="line2d3">
<path style="fill: none; stroke: #ff0000; stroke-width: 1.000000; stroke-linejoin: round; stroke-linecap: square;  opacity: 1.000000" clip-path="url(#p2105d4d122201762fd65f95470f6173f)" d="M73.350000 98.403071L80.171550 112.513136L86.993100 126.197774
L93.814650 139.456983L100.636200 152.290763L107.457750 164.699116
L114.279300 176.682040L121.100850 188.239535L127.922400 199.371603
L134.743950 210.078242L141.565500 220.359452L148.387050 230.215235
L155.208600 239.645589L162.030150 248.650514L168.851700 257.230012
L175.673250 265.384081L182.494800 273.112721L189.316350 280.415934
L196.137900 287.293718L202.959450 293.746073L209.781000 299.773001
L216.602550 305.374500L221.150250 308.872483L225.697950 312.181387
L230.245650 315.301213L234.793350 318.231958L239.341050 320.973625
L243.888750 323.526212L248.436450 325.889720L252.984150 328.064149
L257.531850 330.049499L262.079550 331.845769L266.627250 333.452960
L271.174950 334.871072L275.722650 336.100104L280.270350 337.140057
L284.818050 337.990931L289.365750 338.652726L293.913450 339.125442
L298.461150 339.409078L303.008850 339.503635L307.556550 339.409112
L312.104250 339.125511L316.651950 338.652830L321.199650 337.991070
L325.747350 337.140231L330.295050 336.100312L334.842750 334.871314
L339.390450 333.453237L343.938150 331.846081L348.485850 330.049845
L353.033550 328.064530L357.581250 325.890136L362.128950 323.526663
L366.676650 320.974110L371.224350 318.232478L375.772050 315.301767
L380.319750 312.181976L384.867450 308.873107L389.415150 305.375158
L396.236700 299.773711L403.058250 293.746835L409.879800 287.294532
L416.701350 280.416800L423.522900 273.113639L430.344450 265.385050
L437.166000 257.231033L443.987550 248.651588L450.809100 239.646714
L457.630650 230.216412L464.452200 220.360682L471.273750 210.079523
L478.095300 199.372936L484.916850 188.240921L491.738400 176.683477
L498.559950 164.700605L505.381500 152.292305L512.203050 139.458576
L519.024600 126.199419L525.846150 112.514834L525.846150 112.514834"/>
</g>
<g id="line2d4">
<path style="fill: none; stroke: #00bfbf; stroke-width: 1.000000; stroke-linejoin: round; stroke-linecap: square;  opacity: 1.000000" clip-path="url(#p2105d4d122201762fd65f95470f6173f)" d="M73.350000 347.005893L75.623850 336.316119L77.897700 325.909133
L82.445400 305.932177L86.993100 287.052326L91.540800 269.246881
L96.088500 252.493144L100.636200 236.768417L105.183900 222.050000
L109.731600 208.315196L114.279300 195.541304L118.827000 183.705628
L123.374700 172.785468L127.922400 162.758126L132.470100 153.600903
L137.017800 145.291100L141.565500 137.806019L146.113200 131.122962
L148.387050 128.075099L150.660900 125.219229L152.934750 122.552516
L155.208600 120.072122L157.482450 117.775211L159.756300 115.658943
L162.030150 113.720483L164.304000 111.956993L166.577850 110.365635
L168.851700 108.943573L171.125550 107.687968L173.399400 106.595984
L175.673250 105.664784L177.947100 104.891529L180.220950 104.273383
L182.494800 103.807508L184.768650 103.491067L187.042500 103.321223
L189.316350 103.295138L191.590200 103.409975L193.864050 103.662897
L196.137900 104.051066L198.411750 104.571646L200.685600 105.221797
L202.959450 105.998685L205.233300 106.899470L209.781000 109.061385
L214.328700 111.684845L218.876400 114.747150L223.424100 118.225602
L227.971800 122.097503L232.519500 126.340154L237.067200 130.930856
L241.614900 135.846910L246.162600 141.065619L250.710300 146.564283
L255.258000 152.320204L262.079550 161.386788L268.901100 170.904521
L275.722650 180.796795L284.818050 194.436703L296.187300 211.954780
L318.925800 247.203848L328.021200 260.879810L334.842750 270.809086
L341.664300 280.372361L348.485850 289.493027L353.033550 295.289746
L357.581250 300.833003L362.128950 306.100100L366.676650 311.068338
L371.224350 315.715018L375.772050 320.017442L380.319750 323.952912
L384.867450 327.498728L389.415150 330.632193L393.962850 333.330607
L398.510550 335.571272L400.784400 336.512855L403.058250 337.331489
L405.332100 338.024336L407.605950 338.588560L409.879800 339.021322
L412.153650 339.319785L414.427500 339.481113L416.701350 339.502468
L418.975200 339.381012L421.249050 339.113908L423.522900 338.698319
L425.796750 338.131408L428.070600 337.410336L430.344450 336.532268
L432.618300 335.494365L434.892150 334.293790L437.166000 332.927706
L439.439850 331.393276L441.713700 329.687662L443.987550 327.808027
L446.261400 325.751533L448.535250 323.515344L450.809100 321.096621
L453.082950 318.492529L455.356800 315.700228L457.630650 312.716882
L459.904500 309.539654L462.178350 306.165706L466.726050 298.816303
L471.273750 290.645972L475.821450 281.632016L480.369150 271.751736
L484.916850 260.982433L489.464550 249.301410L494.012250 236.685967
L498.559950 223.113405L503.107650 208.561026L507.655350 193.006132
L512.203050 176.426024L516.750750 158.798003L521.298450 140.099370
L525.846150 120.307428L525.846150 120.307428"/>
</g>
<g id="line2d5">
<path style="fill: none; stroke: #bf00bf; stroke-width: 1.000000; stroke-linejoin: round; stroke-linecap: square;  opacity: 1.000000" clip-path="url(#p2105d4d122201762fd65f95470f6173f)" d="M73.350000 93.079798L75.623850 112.016934L77.897700 130.019080
L80.171550 147.108716L82.445400 163.308096L84.719250 178.639247
L86.993100 193.123968L89.266950 206.783832L91.540800 219.640185
L93.814650 231.714145L96.088500 243.026602L98.362350 253.598222
L100.636200 263.449441L102.910050 272.600469L105.183900 281.071290
L107.457750 288.881660L109.731600 296.051106L112.005450 302.598931
L114.279300 308.544210L116.553150 313.905790L118.827000 318.702292
L121.100850 322.952108L123.374700 326.673406L125.648550 329.884125
L127.922400 332.601977L130.196250 334.844447L132.470100 336.628793
L134.743950 337.972046L137.017800 338.891010L139.291650 339.402262
L141.565500 339.522152L143.839350 339.266802L146.113200 338.652107
L148.387050 337.693737L150.660900 336.407133L152.934750 334.807509
L155.208600 332.909852L157.482450 330.728923L159.756300 328.279254
L162.030150 325.575153L164.304000 322.630697L166.577850 319.459739
L168.851700 316.075903L173.399400 308.722963L177.947100 300.676334
L182.494800 292.036840L187.042500 282.901671L191.590200 273.364384
L198.411750 258.500199L209.781000 232.938046L221.150250 207.435774
L227.971800 192.617772L234.793350 178.420825L239.341050 169.395843
L243.888750 160.783513L248.436450 152.631978L252.984150 144.985747
L257.531850 137.885695L262.079550 131.369064L266.627250 125.469464
L271.174950 120.216869L273.448800 117.841573L275.722650 115.637622
L277.996500 113.607743L280.270350 111.754434L282.544200 110.079964
L284.818050 108.586379L287.091900 107.275494L289.365750 106.148900
L291.639600 105.207960L293.913450 104.453808L296.187300 103.887353
L298.461150 103.509278L300.735000 103.320035L303.008850 103.319853
L305.282700 103.508732L307.556550 103.886444L309.830400 104.452536
L312.104250 105.206327L314.378100 106.146909L316.651950 107.273146
L318.925800 108.583676L321.199650 110.076910L323.473500 111.751031
L325.747350 113.603996L328.021200 115.633535L330.295050 117.837149
L332.568900 120.212114L337.116600 125.464063L341.664300 131.363042
L346.212000 137.879078L350.759700 144.978567L355.307400 152.624267
L359.855100 160.775308L364.402800 169.387184L368.950500 178.411755
L375.772050 192.608173L382.593600 207.425759L391.689000 227.785868
L407.605950 263.504513L414.427500 278.167452L418.975200 287.515415
L423.522900 296.415016L428.070600 304.770884L432.618300 312.484016
L437.166000 319.451774L439.439850 322.623070L441.713700 325.567888
L443.987550 328.272375L446.261400 330.722454L448.535250 332.903818
L450.809100 334.801935L453.082950 336.402045L455.356800 337.689160
L457.630650 338.648068L459.904500 339.263327L462.178350 339.519269
L464.452200 339.399999L466.726050 338.889394L468.999900 337.971106
L471.273750 336.628556L473.547600 334.844944L475.821450 332.603236
L478.095300 329.886177L480.369150 326.676281L482.643000 322.955836
L484.916850 318.706903L487.190700 313.911318L489.464550 308.550685
L491.738400 302.606386L494.012250 296.059573L496.286100 288.891172
L498.559950 281.081881L500.833800 272.612173L503.107650 263.462291
L505.381500 253.612252L507.655350 243.041849L509.929200 231.730642
L512.203050 219.657970L514.476900 206.802940L516.750750 193.144435
L519.024600 178.661110L521.298450 163.331393L523.572300 147.133484
L525.846150 130.045357L525.846150 130.045357"/>
</g>
<g id="line2d6">
<path style="fill: none; stroke: #bfbf00; stroke-width: 1.000000; stroke-linejoin: round; stroke-linecap: square;  opacity: 1.000000" clip-path="url(#p2105d4d122201762fd65f95470f6173f)" d="M73.350000 352.543873L75.623850 323.154690L77.897700 296.073872
L80.171550 271.204503L82.445400 248.451902L84.719250 227.723602
L86.993100 208.929323L89.266950 191.980956L91.540800 176.792533
L93.814650 163.280211L96.088500 151.362243L98.362350 140.958960
L100.636200 131.992747L102.910050 124.388019L105.183900 118.071199
L107.457750 112.970696L109.731600 109.016883L112.005450 106.142070
L114.279300 104.280488L116.553150 103.368259L118.827000 103.343380
L121.100850 104.145694L123.374700 105.716874L125.648550 108.000394
L127.922400 110.941511L130.196250 114.487239L132.470100 118.586326
L134.743950 123.189238L137.017800 128.248125L139.291650 133.716810
L141.565500 139.550756L146.113200 152.144382L150.660900 165.704755
L157.482450 187.209679L173.399400 238.358775L177.947100 252.251802
L182.494800 265.497261L187.042500 277.949445L191.590200 289.481692
L196.137900 299.985659L198.411750 304.823011L200.685600 309.370596
L202.959450 313.619700L205.233300 317.562618L207.507150 321.192629
L209.781000 324.503978L212.054850 327.491848L214.328700 330.152342
L216.602550 332.482455L218.876400 334.480058L221.150250 336.143869
L223.424100 337.473435L225.697950 338.469105L227.971800 339.132010
L230.245650 339.464041L232.519500 339.467825L234.793350 339.146701
L237.067200 338.504699L239.341050 337.546518L241.614900 336.277500
L243.888750 334.703612L246.162600 332.831420L248.436450 330.668065
L250.710300 328.221245L252.984150 325.499189L255.258000 322.510634
L257.531850 319.264803L259.805700 315.771383L262.079550 312.040503
L266.627250 303.908940L271.174950 294.959085L275.722650 285.285512
L280.270350 274.987662L284.818050 264.169122L291.639600 247.199844
L300.735000 223.770967L312.104250 194.463185L318.925800 177.543822
L323.473500 166.771979L328.021200 156.531217L332.568900 146.924744
L337.116600 138.051555L341.664300 130.005700L343.938150 126.320883
L346.212000 122.875560L348.485850 119.679773L350.759700 116.743119
L353.033550 114.074729L355.307400 111.683239L357.581250 109.576777
L359.855100 107.762930L362.128950 106.248729L364.402800 105.040624
L366.676650 104.144458L368.950500 103.565450L371.224350 103.308167
L373.498200 103.376505L375.772050 103.773665L378.045900 104.502129
L380.319750 105.563639L382.593600 106.959174L384.867450 108.688927
L387.141300 110.752283L389.415150 113.147793L391.689000 115.873157
L393.962850 118.925197L396.236700 122.299834L398.510550 125.992069
L400.784400 129.995957L403.058250 134.304585L405.332100 138.910049
L407.605950 143.803435L412.153650 154.413099L416.701350 166.041122
L421.249050 178.577383L425.796750 191.893370L430.344450 205.841454
L437.166000 227.576802L450.809100 271.448436L455.356800 285.310796
L459.904500 298.329451L462.178350 304.425186L464.452200 310.190216
L466.726050 315.581308L468.999900 320.553606L471.273750 325.060601
L473.547600 329.054114L475.821450 332.484271L478.095300 335.299482
L480.369150 337.446414L482.643000 338.869973L484.916850 339.513280
L487.190700 339.317647L489.464550 338.222555L491.738400 336.165631
L494.012250 333.082626L496.286100 328.907393L498.559950 323.571861
L500.833800 317.006016L503.107650 309.137876L505.381500 299.893471
L507.655350 289.196815L509.929200 276.969889L512.203050 263.132615
L514.476900 247.602834L516.750750 230.296284L519.024600 211.126577
L521.298450 190.005176L523.572300 166.841370L525.846150 141.542257
L525.846150 141.542257"/>
</g>
<g id="matplotlib.axis1">
<g id="xtick1">
<g id="line2d7">
<defs><path id="m30e32995789d870ad79a2e54c91cf9c6" d="M0.000000 0.000000L0.000000 -4.000000"/></defs>
<g ><use style="fill: none; stroke: #000000; stroke-width: 0.500000; stroke-linejoin: round; stroke-linecap: butt;  opacity: 1.000000" xlink:href="#m30e32995789d870ad79a2e54c91cf9c6" x="73.350000" y="398.520000"/>
</g></g>
<g id="line2d8">
<defs><path id="m9281cae24120827b11d5ea8a7ad3e96b" d="M0.000000 0.000000L0.000000 4.000000"/></defs>
<g ><use style="fill: none; stroke: #000000; stroke-width: 0.500000; stroke-linejoin: round; stroke-linecap: butt;  opacity: 1.000000" xlink:href="#m9281cae24120827b11d5ea8a7ad3e96b" x="73.350000" y="44.280000"/>
</g></g>
<g id="text1">
<defs>
<path id="c_6a8d56c819c37117ab4cf023bec22a5a" d="M10.593750 -35.500000l62.593750 0.000000l0.000000 8.296875l-62.593750 0.000000z"/>
<path id="c_42baa63129a918535c52adb20d687ea7" d="M12.406250 -8.296875l16.109375 0.000000l0.000000 -55.625000l-17.531250 3.515625l0.000000 -8.984375l17.437500 -3.515625l9.859375 0.000000l0.000000 64.609375l16.109375 0.000000l0.000000 8.296875l-41.984375 0.000000z"/>
<path id="c_ed3e21196fb739f392806f09ca0594ef" d="M10.687500 -12.406250l10.312500 0.000000l0.000000 12.406250l-10.312500 0.000000z"/>
<path id="c_7a2040fe3b94fcd41d0a72c84e93b115" d="M31.781250 -66.406250q-7.609375 0.000000 -11.453125 7.500000q-3.828125 7.484375 -3.828125 22.531250q0.000000 14.984375 3.828125 22.484375q3.843750 7.500000 11.453125 7.500000q7.671875 0.000000 11.500000 -7.500000q3.843750 -7.500000 3.843750 -22.484375q0.000000 -15.046875 -3.843750 -22.531250q-3.828125 -7.500000 -11.500000 -7.500000M31.781250 -74.218750q12.265625 0.000000 18.734375 9.703125q6.468750 9.687500 6.468750 28.140625q0.000000 18.406250 -6.468750 28.109375q-6.468750 9.687500 -18.734375 9.687500q-12.250000 0.000000 -18.718750 -9.687500q-6.468750 -9.703125 -6.468750 -28.109375q0.000000 -18.453125 6.468750 -28.140625q6.468750 -9.703125 18.718750 -9.703125"/>
</defs>
<g style="fill: #000000; opacity: 1.000000" transform="translate(59.803125,411.426250)scale(0.120000)">
<use xlink:href="#c_6a8d56c819c37117ab4cf023bec22a5a"/>
<use xlink:href="#c_42baa63129a918535c52adb20d687ea7" x="83.789062"/>
<use xlink:href="#c_ed3e21196fb739f392806f09ca0594ef" x="147.412109"/>
<use xlink:href="#c_7a2040fe3b94fcd41d0a72c84e93b115" x="179.199219"/>
</g>
</g>
</g>
<g id="xtick2">
<g id="line2d9">
<g ><use style="fill: none; stroke: #000000; stroke-width: 0.500000; stroke-linejoin: round; stroke-linecap: butt;  opacity: 1.000000" xlink:href="#m30e32995789d870ad79a2e54c91cf9c6" x="187.042500" y="398.520000"/>
</g></g>
<g id="line2d10">
<g ><use style="fill: none; stroke: #000000; stroke-width: 0.500000; stroke-linejoin: round; stroke-linecap: butt;  opacity: 1.000000" xlink:href="#m9281cae24120827b11d5ea8a7ad3e96b" x="187.042500" y="44.280000"/>
</g></g>
<g id="text2">
<defs>
<path id="c_1260a2df50f305f3db244e29828f968e" d="M10.796875 -72.906250l38.718750 0.000000l0.000000 8.312500l-29.687500 0.000000l0.000000 17.859375q2.140625 -0.734375 4.281250 -1.093750q2.156250 -0.359375 4.312500 -0.359375q12.203125 0.000000 19.328125 6.687500q7.140625 6.687500 7.140625 18.109375q0.000000 11.765625 -7.328125 18.296875q-7.328125 6.515625 -20.656250 6.515625q-4.593750 0.000000 -9.359375 -0.781250q-4.750000 -0.781250 -9.828125 -2.343750l0.000000 -9.921875q4.390625 2.390625 9.078125 3.562500q4.687500 1.171875 9.906250 1.171875q8.453125 0.000000 13.375000 -4.437500q4.937500 -4.437500 4.937500 -12.062500q0.000000 -7.609375 -4.937500 -12.046875q-4.921875 -4.453125 -13.375000 -4.453125q-3.953125 0.000000 -7.890625 0.875000q-3.921875 0.875000 -8.015625 2.734375z"/>
</defs>
<g style="fill: #000000; opacity: 1.000000" transform="translate(173.620625,411.426250)scale(0.120000)">
<use xlink:href="#c_6a8d56c819c37117ab4cf023bec22a5a"/>
<use xlink:href="#c_7a2040fe3b94fcd41d0a72c84e93b115" x="83.789062"/>
<use xlink:href="#c_ed3e21196fb739f392806f09ca0594ef" x="147.412109"/>
<use xlink:href="#c_1260a2df50f305f3db244e29828f968e" x="179.199219"/>
</g>
</g>
</g>
<g id="xtick3">
<g id="line2d11">
<g ><use style="fill: none; stroke: #000000; stroke-width: 0.500000; stroke-linejoin: round; stroke-linecap: butt;  opacity: 1.000000" xlink:href="#m30e32995789d870ad79a2e54c91cf9c6" x="300.735000" y="398.520000"/>
</g></g>
<g id="line2d12">
<g ><use style="fill: none; stroke: #000000; stroke-width: 0.500000; stroke-linejoin: round; stroke-linecap: butt;  opacity: 1.000000" xlink:href="#m9281cae24120827b11d5ea8a7ad3e96b" x="300.735000" y="44.280000"/>
</g></g>
<g id="text3">
<g style="fill: #000000; opacity: 1.000000" transform="translate(291.985000,411.426250)scale(0.120000)">
<use xlink:href="#c_7a2040fe3b94fcd41d0a72c84e93b115"/>
<use xlink:href="#c_ed3e21196fb739f392806f09ca0594ef" x="63.623047"/>
<use xlink:href="#c_7a2040fe3b94fcd41d0a72c84e93b115" x="95.410156"/>
</g>
</g>
</g>
<g id="xtick4">
<g id="line2d13">
<g ><use style="fill: none; stroke: #000000; stroke-width: 0.500000; stroke-linejoin: round; stroke-linecap: butt;  opacity: 1.000000" xlink:href="#m30e32995789d870ad79a2e54c91cf9c6" x="414.427500" y="398.520000"/>
</g></g>
<g id="line2d14">
<g ><use style="fill: none; stroke: #000000; stroke-width: 0.500000; stroke-linejoin: round; stroke-linecap: butt;  opacity: 1.000000" xlink:href="#m9281cae24120827b11d5ea8a7ad3e96b" x="414.427500" y="44.280000"/>
</g></g>
<g id="text4">
<g style="fill: #000000; opacity: 1.000000" transform="translate(405.802500,411.426250)scale(0.120000)">
<use xlink:href="#c_7a2040fe3b94fcd41d0a72c84e93b115"/>
<use xlink:href="#c_ed3e21196fb739f392806f09ca0594ef" x="63.623047"/>
<use xlink:href="#c_1260a2df50f305f3db244e29828f968e" x="95.410156"/>
</g>
</g>
</g>
<g id="xtick5">
<g id="line2d15">
<g ><use style="fill: none; stroke: #000000; stroke-width: 0.500000; stroke-linejoin: round; stroke-linecap: butt;  opacity: 1.000000" xlink:href="#m30e32995789d870ad79a2e54c91cf9c6" x="528.120000" y="398.520000"/>
</g></g>
<g id="line2d16">
<g ><use style="fill: none; stroke: #000000; stroke-width: 0.500000; stroke-linejoin: round; stroke-linecap: butt;  opacity: 1.000000" xlink:href="#m9281cae24120827b11d5ea8a7ad3e96b" x="528.120000" y="44.280000"/>
</g></g>
<g id="text5">
<g style="fill: #000000; opacity: 1.000000" transform="translate(519.627813,411.426250)scale(0.120000)">
<use xlink:href="#c_42baa63129a918535c52adb20d687ea7"/>
<use xlink:href="#c_ed3e21196fb739f392806f09ca0594ef" x="63.623047"/>
<use xlink:href="#c_7a2040fe3b94fcd41d0a72c84e93b115" x="95.410156"/>
</g>
</g>
</g>
</g>
<g id="matplotlib.axis2">
<g id="ytick1">
<g id="line2d17">
<defs><path id="m3400efa6b1638b3fea9e19e898273957" d="M0.000000 0.000000L4.000000 0.000000"/></defs>
<g ><use style="fill: none; stroke: #000000; stroke-width: 0.500000; stroke-linejoin: round; stroke-linecap: butt;  opacity: 1.000000" xlink:href="#m3400efa6b1638b3fea9e19e898273957" x="73.350000" y="398.520000"/>
</g></g>
<g id="line2d18">
<defs><path id="m20b58b2501143cb5e0a5e8f1ef6f1643" d="M0.000000 0.000000L-4.000000 0.000000"/></defs>
<g ><use style="fill: none; stroke: #000000; stroke-width: 0.500000; stroke-linejoin: round; stroke-linecap: butt;  opacity: 1.000000" xlink:href="#m20b58b2501143cb5e0a5e8f1ef6f1643" x="528.120000" y="398.520000"/>
</g></g>
<g id="text6">
<g style="fill: #000000; opacity: 1.000000" transform="translate(42.506250,402.809062)scale(0.120000)">
<use xlink:href="#c_6a8d56c819c37117ab4cf023bec22a5a"/>
<use xlink:href="#c_42baa63129a918535c52adb20d687ea7" x="83.789062"/>
<use xlink:href="#c_ed3e21196fb739f392806f09ca0594ef" x="147.412109"/>
<use xlink:href="#c_1260a2df50f305f3db244e29828f968e" x="179.199219"/>
</g>
</g>
</g>
<g id="ytick2">
<g id="line2d19">
<g ><use style="fill: none; stroke: #000000; stroke-width: 0.500000; stroke-linejoin: round; stroke-linecap: butt;  opacity: 1.000000" xlink:href="#m3400efa6b1638b3fea9e19e898273957" x="73.350000" y="339.480000"/>
</g></g>
<g id="line2d20">
<g ><use style="fill: none; stroke: #000000; stroke-width: 0.500000; stroke-linejoin: round; stroke-linecap: butt;  opacity: 1.000000" xlink:href="#m20b58b2501143cb5e0a5e8f1ef6f1643" x="528.120000" y="339.480000"/>
</g></g>
<g id="text7">
<g style="fill: #000000; opacity: 1.000000" transform="translate(42.256250,343.847188)scale(0.120000)">
<use xlink:href="#c_6a8d56c819c37117ab4cf023bec22a5a"/>
<use xlink:href="#c_42baa63129a918535c52adb20d687ea7" x="83.789062"/>
<use xlink:href="#c_ed3e21196fb739f392806f09ca0594ef" x="147.412109"/>
<use xlink:href="#c_7a2040fe3b94fcd41d0a72c84e93b115" x="179.199219"/>
</g>
</g>
</g>
<g id="ytick3">
<g id="line2d21">
<g ><use style="fill: none; stroke: #000000; stroke-width: 0.500000; stroke-linejoin: round; stroke-linecap: butt;  opacity: 1.000000" xlink:href="#m3400efa6b1638b3fea9e19e898273957" x="73.350000" y="280.440000"/>
</g></g>
<g id="line2d22">
<g ><use style="fill: none; stroke: #000000; stroke-width: 0.500000; stroke-linejoin: round; stroke-linecap: butt;  opacity: 1.000000" xlink:href="#m20b58b2501143cb5e0a5e8f1ef6f1643" x="528.120000" y="280.440000"/>
</g></g>
<g id="text8">
<g style="fill: #000000; opacity: 1.000000" transform="translate(42.506250,284.807187)scale(0.120000)">
<use xlink:href="#c_6a8d56c819c37117ab4cf023bec22a5a"/>
<use xlink:href="#c_7a2040fe3b94fcd41d0a72c84e93b115" x="83.789062"/>
<use xlink:href="#c_ed3e21196fb739f392806f09ca0594ef" x="147.412109"/>
<use xlink:href="#c_1260a2df50f305f3db244e29828f968e" x="179.199219"/>
</g>
</g>
</g>
<g id="ytick4">
<g id="line2d23">
<g ><use style="fill: none; stroke: #000000; stroke-width: 0.500000; stroke-linejoin: round; stroke-linecap: butt;  opacity: 1.000000" xlink:href="#m3400efa6b1638b3fea9e19e898273957" x="73.350000" y="221.400000"/>
</g></g>
<g id="line2d24">
<g ><use style="fill: none; stroke: #000000; stroke-width: 0.500000; stroke-linejoin: round; stroke-linecap: butt;  opacity: 1.000000" xlink:href="#m20b58b2501143cb5e0a5e8f1ef6f1643" x="528.120000" y="221.400000"/>
</g></g>
<g id="text9">
<g style="fill: #000000; opacity: 1.000000" transform="translate(51.850000,225.767187)scale(0.120000)">
<use xlink:href="#c_7a2040fe3b94fcd41d0a72c84e93b115"/>
<use xlink:href="#c_ed3e21196fb739f392806f09ca0594ef" x="63.623047"/>
<use xlink:href="#c_7a2040fe3b94fcd41d0a72c84e93b115" x="95.410156"/>
</g>
</g>
</g>
<g id="ytick5">
<g id="line2d25">
<g ><use style="fill: none; stroke: #000000; stroke-width: 0.500000; stroke-linejoin: round; stroke-linecap: butt;  opacity: 1.000000" xlink:href="#m3400efa6b1638b3fea9e19e898273957" x="73.350000" y="162.360000"/>
</g></g>
<g id="line2d26">
<g ><use style="fill: none; stroke: #000000; stroke-width: 0.500000; stroke-linejoin: round; stroke-linecap: butt;  opacity: 1.000000" xlink:href="#m20b58b2501143cb5e0a5e8f1ef6f1643" x="528.120000" y="162.360000"/>
</g></g>
<g id="text10">
<g style="fill: #000000; opacity: 1.000000" transform="translate(52.100000,166.727187)scale(0.120000)">
<use xlink:href="#c_7a2040fe3b94fcd41d0a72c84e93b115"/>
<use xlink:href="#c_ed3e21196fb739f392806f09ca0594ef" x="63.623047"/>
<use xlink:href="#c_1260a2df50f305f3db244e29828f968e" x="95.410156"/>
</g>
</g>
</g>
<g id="ytick6">
<g id="line2d27">
<g ><use style="fill: none; stroke: #000000; stroke-width: 0.500000; stroke-linejoin: round; stroke-linecap: butt;  opacity: 1.000000" xlink:href="#m3400efa6b1638b3fea9e19e898273957" x="73.350000" y="103.320000"/>
</g></g>
<g id="line2d28">
<g ><use style="fill: none; stroke: #000000; stroke-width: 0.500000; stroke-linejoin: round; stroke-linecap: butt;  opacity: 1.000000" xlink:href="#m20b58b2501143cb5e0a5e8f1ef6f1643" x="528.120000" y="103.320000"/>
</g></g>
<g id="text11">
<g style="fill: #000000; opacity: 1.000000" transform="translate(52.365625,107.687187)scale(0.120000)">
<use xlink:href="#c_42baa63129a918535c52adb20d687ea7"/>
<use xlink:href="#c_ed3e21196fb739f392806f09ca0594ef" x="63.623047"/>
<use xlink:href="#c_7a2040fe3b94fcd41d0a72c84e93b115" x="95.410156"/>
</g>
</g>
</g>
<g id="ytick7">
<g id="line2d29">
<g ><use style="fill: none; stroke: #000000; stroke-width: 0.500000; stroke-linejoin: round; stroke-linecap: butt;  opacity: 1.000000" xlink:href="#m3400efa6b1638b3fea9e19e898273957" x="73.350000" y="44.280000"/>
</g></g>
<g id="line2d30">
<g ><use style="fill: none; stroke: #000000; stroke-width: 0.500000; stroke-linejoin: round; stroke-linecap: butt;  opacity: 1.000000" xlink:href="#m20b58b2501143cb5e0a5e8f1ef6f1643" x="528.120000" y="44.280000"/>
</g></g>
<g id="text12">
<g style="fill: #000000; opacity: 1.000000" transform="translate(52.615625,48.569062)scale(0.120000)">
<use xlink:href="#c_42baa63129a918535c52adb20d687ea7"/>
<use xlink:href="#c_ed3e21196fb739f392806f09ca0594ef" x="63.623047"/>
<use xlink:href="#c_1260a2df50f305f3db244e29828f968e" x="95.410156"/>
</g>
</g>
</g>
</g>
<g id="patch3">
<path style="fill: none; stroke: #000000; stroke-width: 1.000000; stroke-linejoin: round; stroke-linecap: square;  opacity: 1.000000"  d="M73.350000 44.280000L528.120000 44.280000"/>
</g>
<g id="patch4">
<path style="fill: none; stroke: #000000; stroke-width: 1.000000; stroke-linejoin: round; stroke-linecap: square;  opacity: 1.000000"  d="M528.120000 398.520000L528.120000 44.280000"/>
</g>
<g id="patch5">
<path style="fill: none; stroke: #000000; stroke-width: 1.000000; stroke-linejoin: round; stroke-linecap: square;  opacity: 1.000000"  d="M73.350000 398.520000L528.120000 398.520000"/>
</g>
<g id="patch6">
<path style="fill: none; stroke: #000000; stroke-width: 1.000000; stroke-linejoin: round; stroke-linecap: square;  opacity: 1.000000"  d="M73.350000 398.520000L73.350000 44.280000"/>
</g>
</g>
</g>
</svg>
