<?xml version="1.0" standalone="no"?>
<!DOCTYPE svg PUBLIC "-//W3C//DTD SVG 1.1//EN"
  "http://www.w3.org/Graphics/SVG/1.1/DTD/svg11.dtd">
<!-- Created with matplotlib (http://matplotlib.sourceforge.net/) -->
<svg width="586pt" height="442pt" viewBox="0 0 586 442"
   xmlns="http://www.w3.org/2000/svg"
   xmlns:xlink="http://www.w3.org/1999/xlink"
   version="1.1"
   id="svg1">
<filter id="colorAdd"><feComposite in="SourceGraphic" in2="BackgroundImage" operator="arithmetic" k2="1" k3="1"/></filter>
<g id="figure1">
<g id="patch1">
<path style="fill: #ffffff; stroke: #ffffff; stroke-width: 1.000000; stroke-linejoin: round; stroke-linecap: square;  opacity: 1.000000"  d="M0.000000 442.800000L586.800000 442.800000L586.800000 0.000000
L0.000000 0.000000z"/>
</g>
<g id="axes1">
<g id="patch2">
<path style="fill: #ffffff; opacity: 1.000000"  d="M73.350000 398.520000L528.120000 398.520000L528.120000 44.280000
L73.350000 44.280000z"/>
</g>
<g id="line2d1">
<defs>
  <clipPath id="p2105d4d122201762fd65f95470f6173f">
<rect x="73.350000" y="44.280000" width="454.770000" height="354.240000"/>
  </clipPath>
</defs><path style="fill: none; stroke: #0000ff; stroke-width: 1.000000; stroke-linejoin: round; stroke-linecap: square;  opacity: 1.000000" clip-path="url(#p2105d4d122201762fd65f95470f6173f)" d="M73.350000 339.480000L525.846150 339.480000L525.846150 339.480000"/>
</g>
<g id="line2d2">
<path style="fill: none; stroke: #008000; stroke-width: 1.000000; stroke-linejoin: round; stroke-linecap: square;  opacity: 1.000000" clip-path="url(#p2105d4d122201762fd65f95470f6173f)" d="M73.350000 339.480000L525.846150 104.500800L525.846150 104.500800"/>
</g>
<g id="line2d3">
<path style="fill: none; stroke: #ff0000; stroke-width: 1.000000; stroke-linejoin: round; stroke-linecap: square;  opacity: 1.000000" clip-path="url(#p2105d4d122201762fd65f95470f6173f)" d="M73.350000 103.834111L80.171550 114.301418L86.993100 124.449923
L93.814650 134.279627L100.636200 143.790530L107.457750 152.982631
L114.279300 161.855931L121.100850 170.410431L127.922400 178.646129
L134.743950 186.563025L141.565500 194.161121L148.387050 201.440415
L155.208600 208.400908L162.030150 215.042600L168.851700 221.365491
L175.673250 227.369580L182.494800 233.054869L189.316350 238.421356
L196.137900 243.469041L202.959450 248.197926L209.781000 252.608009
L216.602550 256.699292L223.424100 260.471773L230.245650 263.925452
L237.067200 267.060331L243.888750 269.876408L250.710300 272.373685
L257.531850 274.552159L264.353400 276.411833L271.174950 277.952706
L277.996500 279.174777L284.818050 280.078047L291.639600 280.662516
L298.461150 280.928184L305.282700 280.875050L312.104250 280.503115
L318.925800 279.812379L325.747350 278.802842L332.568900 277.474504
L339.390450 275.827364L346.212000 273.861423L353.033550 271.576681
L359.855100 268.973138L366.676650 266.050794L373.498200 262.809648
L380.319750 259.249701L387.141300 255.370953L393.962850 251.173404
L400.784400 246.657054L407.605950 241.821902L414.427500 236.667949
L421.249050 231.195195L428.070600 225.403639L434.892150 219.293283
L441.713700 212.864125L448.535250 206.116166L455.356800 199.049406
L462.178350 191.663845L468.999900 183.959482L475.821450 175.936318
L482.643000 167.594353L489.464550 158.933587L496.286100 149.954020
L503.107650 140.655651L509.929200 131.038481L516.750750 121.102510
L523.572300 110.847738L525.846150 107.358636L525.846150 107.358636"/>
</g>
<g id="line2d4">
<path style="fill: none; stroke: #00bfbf; stroke-width: 1.000000; stroke-linejoin: round; stroke-linecap: square;  opacity: 1.000000" clip-path="url(#p2105d4d122201762fd65f95470f6173f)" d="M73.350000 335.183883L75.623850 328.260612L77.897700 321.511841
L82.445400 308.530725L86.993100 296.226381L91.540800 284.584656
L96.088500 273.591396L100.636200 263.232450L105.183900 253.493663
L109.731600 244.360882L114.279300 235.819954L118.827000 227.856726
L123.374700 220.457044L127.922400 213.606755L132.470100 207.291706
L137.017800 201.497744L141.565500 196.210715L146.113200 191.416466
L150.660900 187.100844L155.208600 183.249696L159.756300 179.848868
L164.304000 176.884207L168.851700 174.341560L173.399400 172.206774
L177.947100 170.465695L182.494800 169.104170L187.042500 168.108046
L191.590200 167.463170L196.137900 167.155388L200.685600 167.170548
L205.233300 167.494495L209.781000 168.113077L214.328700 169.012140
L218.876400 170.177531L223.424100 171.595097L227.971800 173.250685
L232.519500 175.130141L237.067200 177.219313L241.614900 179.504046
L246.162600 181.970188L252.984150 185.978581L259.805700 190.315532
L266.627250 194.933273L273.448800 199.784038L282.544200 206.531643
L293.913450 215.256795L318.925800 234.550977L328.021200 241.246910
L334.842750 246.045356L341.664300 250.599152L348.485850 254.860532
L355.307400 258.781728L359.855100 261.183279L364.402800 263.398254
L368.950500 265.412500L373.498200 267.211864L378.045900 268.782192
L382.593600 270.109331L387.141300 271.179128L391.689000 271.977430
L396.236700 272.490083L400.784400 272.702934L405.332100 272.601830
L409.879800 272.172617L414.427500 271.401143L418.975200 270.273254
L423.522900 268.774797L428.070600 266.891619L432.618300 264.609565
L437.166000 261.914484L441.713700 258.792222L446.261400 255.228626
L450.809100 251.209541L455.356800 246.720816L459.904500 241.748297
L464.452200 236.277830L468.999900 230.295263L473.547600 223.786442
L478.095300 216.737213L482.643000 209.133425L487.190700 200.960922
L491.738400 192.205553L496.286100 182.853164L500.833800 172.889601
L505.381500 162.300711L509.929200 151.072342L514.476900 139.190339
L519.024600 126.640550L523.572300 113.408822L525.846150 106.532807
L525.846150 106.532807"/>
</g>
<g id="line2d5">
<path style="fill: none; stroke: #bf00bf; stroke-width: 1.000000; stroke-linejoin: round; stroke-linecap: square;  opacity: 1.000000" clip-path="url(#p2105d4d122201762fd65f95470f6173f)" d="M73.350000 99.799048L75.623850 111.345821L77.897700 122.375369
L82.445400 142.931309L86.993100 161.562667L89.266950 170.186024
L91.540800 178.363262L93.814650 186.105802L96.088500 193.424938
L98.362350 200.331842L100.636200 206.837561L102.910050 212.953021
L105.183900 218.689021L107.457750 224.056240L109.731600 229.065232
L112.005450 233.726425L114.279300 238.050128L116.553150 242.046523
L118.827000 245.725670L121.100850 249.097506L123.374700 252.171842
L125.648550 254.958367L127.922400 257.466647L130.196250 259.706125
L132.470100 261.686117L134.743950 263.415820L137.017800 264.904304
L139.291650 266.160517L141.565500 267.193282L143.839350 268.011302
L146.113200 268.623153L148.387050 269.037287L150.660900 269.262036
L152.934750 269.305606L155.208600 269.176079L157.482450 268.881415
L159.756300 268.429449L162.030150 267.827895L164.304000 267.084340
L166.577850 266.206249L171.125550 264.075705L175.673250 261.493512
L180.220950 258.514944L184.768650 255.193298L189.316350 251.579892
L193.864050 247.724071L200.685600 241.588884L209.781000 232.985688
L227.971800 215.535216L234.793350 209.276088L241.614900 203.336657
L246.162600 199.600232L250.710300 196.071391L255.258000 192.772791
L259.805700 189.725111L264.353400 186.947056L268.901100 184.455352
L273.448800 182.264749L277.996500 180.388019L282.544200 178.835959
L287.091900 177.617390L291.639600 176.739153L296.187300 176.206114
L300.735000 176.021164L305.282700 176.185214L309.830400 176.697200
L314.378100 177.554082L318.925800 178.750842L323.473500 180.280484
L328.021200 182.134039L332.568900 184.300557L337.116600 186.767115
L341.664300 189.518811L346.212000 192.538766L350.759700 195.808126
L355.307400 199.306058L362.128950 204.931097L368.950500 210.933324
L378.045900 219.356828L403.058250 242.915630L409.879800 248.828894
L414.427500 252.503159L418.975200 255.906792L423.522900 258.989312
L428.070600 261.698257L432.618300 263.979192L434.892150 264.941603
L437.166000 265.775702L439.439850 266.474129L441.713700 267.029399
L443.987550 267.433904L446.261400 267.679914L448.535250 267.759573
L450.809100 267.664904L453.082950 267.387805L455.356800 266.920050
L457.630650 266.253290L459.904500 265.379053L462.178350 264.288743
L464.452200 262.973640L466.726050 261.424902L468.999900 259.633561
L471.273750 257.590527L473.547600 255.286587L475.821450 252.712403
L478.095300 249.858515L480.369150 246.715337L482.643000 243.273163
L484.916850 239.522161L487.190700 235.452375L489.464550 231.053727
L491.738400 226.316015L494.012250 221.228914L496.286100 215.781973
L498.559950 209.964621L500.833800 203.766160L503.107650 197.175772
L505.381500 190.182513L507.655350 182.775315L509.929200 174.942988
L512.203050 166.674219L514.476900 157.957569L516.750750 148.781477
L521.298450 129.004107L525.846150 107.247149L525.846150 107.247149"/>
</g>
<g id="line2d6">
<path style="fill: none; stroke: #bfbf00; stroke-width: 1.000000; stroke-linejoin: round; stroke-linecap: square;  opacity: 1.000000" clip-path="url(#p2105d4d122201762fd65f95470f6173f)" d="M73.350000 351.638247L75.623850 343.411900L77.897700 335.617522
L80.171550 328.239616L82.445400 321.263017L84.719250 314.672892
L86.993100 308.454730L89.266950 302.594346L91.540800 297.077872
L93.814650 291.891757L96.088500 287.022764L98.362350 282.457964
L100.636200 278.184735L102.910050 274.190759L105.183900 270.464018
L107.457750 266.992791L109.731600 263.765649L112.005450 260.771455
L114.279300 257.999360L116.553150 255.438796L118.827000 253.079480
L121.100850 250.911402L123.374700 248.924829L125.648550 247.110300
L127.922400 245.458619L130.196250 243.960857L132.470100 242.608345
L134.743950 241.392673L139.291650 239.339482L143.839350 237.739045
L148.387050 236.533049L152.934750 235.667004L157.482450 235.090139
L162.030150 234.755301L166.577850 234.618849L173.399400 234.699050
L180.220950 235.013949L193.864050 235.939152L205.233300 236.624799
L214.328700 236.914924L221.150250 236.916612L227.971800 236.702623
L234.793350 236.256821L241.614900 235.572773L248.436450 234.652968
L255.258000 233.508033L262.079550 232.155952L271.174950 230.074248
L280.270350 227.742483L293.913450 223.973687L309.830400 219.585472
L318.925800 217.301650L325.747350 215.784217L332.568900 214.487925
L339.390450 213.459459L346.212000 212.743212L350.759700 212.459722
L355.307400 212.344762L359.855100 212.408789L364.402800 212.661293
L368.950500 213.110693L373.498200 213.764233L378.045900 214.627881
L382.593600 215.706227L387.141300 217.002375L391.689000 218.517845
L396.236700 220.252466L400.784400 222.204278L405.332100 224.369422
L409.879800 226.742045L414.427500 229.314190L418.975200 232.075698
L425.796750 236.545085L432.618300 241.359568L439.439850 246.453811
L448.535250 253.542513L466.726050 267.823391L473.547600 272.827181
L478.095300 275.935464L482.643000 278.801745L487.190700 281.370439
L491.738400 283.582110L496.286100 285.373366L498.559950 286.090420
L500.833800 286.676754L503.107650 287.123285L505.381500 287.420665
L507.655350 287.559273L509.929200 287.529219L512.203050 287.320335
L514.476900 286.922173L516.750750 286.324005L519.024600 285.514813
L521.298450 284.483293L523.572300 283.217848L525.846150 281.706586
L525.846150 281.706586"/>
</g>
<g id="matplotlib.axis1">
<g id="xtick1">
<g id="line2d7">
<defs><path id="m30e32995789d870ad79a2e54c91cf9c6" d="M0.000000 0.000000L0.000000 -4.000000"/></defs>
<g ><use style="fill: none; stroke: #000000; stroke-width: 0.500000; stroke-linejoin: round; stroke-linecap: butt;  opacity: 1.000000" xlink:href="#m30e32995789d870ad79a2e54c91cf9c6" x="73.350000" y="398.520000"/>
</g></g>
<g id="line2d8">
<defs><path id="m9281cae24120827b11d5ea8a7ad3e96b" d="M0.000000 0.000000L0.000000 4.000000"/></defs>
<g ><use style="fill: none; stroke: #000000; stroke-width: 0.500000; stroke-linejoin: round; stroke-linecap: butt;  opacity: 1.000000" xlink:href="#m9281cae24120827b11d5ea8a7ad3e96b" x="73.350000" y="44.280000"/>
</g></g>
<g id="text1">
<defs>
<path id="c_6a8d56c819c37117ab4cf023bec22a5a" d="M10.593750 -35.500000l62.593750 0.000000l0.000000 8.296875l-62.593750 0.000000z"/>
<path id="c_42baa63129a918535c52adb20d687ea7" d="M12.406250 -8.296875l16.109375 0.000000l0.000000 -55.625000l-17.531250 3.515625l0.000000 -8.984375l17.437500 -3.515625l9.859375 0.000000l0.000000 64.609375l16.109375 0.000000l0.000000 8.296875l-41.984375 0.000000z"/>
<path id="c_ed3e21196fb739f392806f09ca0594ef" d="M10.687500 -12.406250l10.312500 0.000000l0.000000 12.406250l-10.312500 0.000000z"/>
<path id="c_7a2040fe3b94fcd41d0a72c84e93b115" d="M31.781250 -66.406250q-7.609375 0.000000 -11.453125 7.500000q-3.828125 7.484375 -3.828125 22.531250q0.000000 14.984375 3.828125 22.484375q3.843750 7.500000 11.453125 7.500000q7.671875 0.000000 11.500000 -7.500000q3.843750 -7.500000 3.843750 -22.484375q0.000000 -15.046875 -3.843750 -22.531250q-3.828125 -7.500000 -11.500000 -7.500000M31.781250 -74.218750q12.265625 0.000000 18.734375 9.703125q6.468750 9.687500 6.468750 28.140625q0.000000 18.406250 -6.468750 28.109375q-6.468750 9.687500 -18.734375 9.687500q-12.250000 0.000000 -18.718750 -9.687500q-6.468750 -9.703125 -6.468750 -28.109375q0.000000 -18.453125 6.468750 -28.140625q6.468750 -9.703125 18.718750 -9.703125"/>
</defs>
<g style="fill: #000000; opacity: 1.000000" transform="translate(59.803125,411.426250)scale(0.120000)">
<use xlink:href="#c_6a8d56c819c37117ab4cf023bec22a5a"/>
<use xlink:href="#c_42baa63129a918535c52adb20d687ea7" x="83.789062"/>
<use xlink:href="#c_ed3e21196fb739f392806f09ca0594ef" x="147.412109"/>
<use xlink:href="#c_7a2040fe3b94fcd41d0a72c84e93b115" x="179.199219"/>
</g>
</g>
</g>
<g id="xtick2">
<g id="line2d9">
<g ><use style="fill: none; stroke: #000000; stroke-width: 0.500000; stroke-linejoin: round; stroke-linecap: butt;  opacity: 1.000000" xlink:href="#m30e32995789d870ad79a2e54c91cf9c6" x="187.042500" y="398.520000"/>
</g></g>
<g id="line2d10">
<g ><use style="fill: none; stroke: #000000; stroke-width: 0.500000; stroke-linejoin: round; stroke-linecap: butt;  opacity: 1.000000" xlink:href="#m9281cae24120827b11d5ea8a7ad3e96b" x="187.042500" y="44.280000"/>
</g></g>
<g id="text2">
<defs>
<path id="c_1260a2df50f305f3db244e29828f968e" d="M10.796875 -72.906250l38.718750 0.000000l0.000000 8.312500l-29.687500 0.000000l0.000000 17.859375q2.140625 -0.734375 4.281250 -1.093750q2.156250 -0.359375 4.312500 -0.359375q12.203125 0.000000 19.328125 6.687500q7.140625 6.687500 7.140625 18.109375q0.000000 11.765625 -7.328125 18.296875q-7.328125 6.515625 -20.656250 6.515625q-4.593750 0.000000 -9.359375 -0.781250q-4.750000 -0.781250 -9.828125 -2.343750l0.000000 -9.921875q4.390625 2.390625 9.078125 3.562500q4.687500 1.171875 9.906250 1.171875q8.453125 0.000000 13.375000 -4.437500q4.937500 -4.437500 4.937500 -12.062500q0.000000 -7.609375 -4.937500 -12.046875q-4.921875 -4.453125 -13.375000 -4.453125q-3.953125 0.000000 -7.890625 0.875000q-3.921875 0.875000 -8.015625 2.734375z"/>
</defs>
<g style="fill: #000000; opacity: 1.000000" transform="translate(173.620625,411.426250)scale(0.120000)">
<use xlink:href="#c_6a8d56c819c37117ab4cf023bec22a5a"/>
<use xlink:href="#c_7a2040fe3b94fcd41d0a72c84e93b115" x="83.789062"/>
<use xlink:href="#c_ed3e21196fb739f392806f09ca0594ef" x="147.412109"/>
<use xlink:href="#c_1260a2df50f305f3db244e29828f968e" x="179.199219"/>
</g>
</g>
</g>
<g id="xtick3">
<g id="line2d11">
<g ><use style="fill: none; stroke: #000000; stroke-width: 0.500000; stroke-linejoin: round; stroke-linecap: butt;  opacity: 1.000000" xlink:href="#m30e32995789d870ad79a2e54c91cf9c6" x="300.735000" y="398.520000"/>
</g></g>
<g id="line2d12">
<g ><use style="fill: none; stroke: #000000; stroke-width: 0.500000; stroke-linejoin: round; stroke-linecap: butt;  opacity: 1.000000" xlink:href="#m9281cae24120827b11d5ea8a7ad3e96b" x="300.735000" y="44.280000"/>
</g></g>
<g id="text3">
<g style="fill: #000000; opacity: 1.000000" transform="translate(291.985000,411.426250)scale(0.120000)">
<use xlink:href="#c_7a2040fe3b94fcd41d0a72c84e93b115"/>
<use xlink:href="#c_ed3e21196fb739f392806f09ca0594ef" x="63.623047"/>
<use xlink:href="#c_7a2040fe3b94fcd41d0a72c84e93b115" x="95.410156"/>
</g>
</g>
</g>
<g id="xtick4">
<g id="line2d13">
<g ><use style="fill: none; stroke: #000000; stroke-width: 0.500000; stroke-linejoin: round; stroke-linecap: butt;  opacity: 1.000000" xlink:href="#m30e32995789d870ad79a2e54c91cf9c6" x="414.427500" y="398.520000"/>
</g></g>
<g id="line2d14">
<g ><use style="fill: none; stroke: #000000; stroke-width: 0.500000; stroke-linejoin: round; stroke-linecap: butt;  opacity: 1.000000" xlink:href="#m9281cae24120827b11d5ea8a7ad3e96b" x="414.427500" y="44.280000"/>
</g></g>
<g id="text4">
<g style="fill: #000000; opacity: 1.000000" transform="translate(405.802500,411.426250)scale(0.120000)">
<use xlink:href="#c_7a2040fe3b94fcd41d0a72c84e93b115"/>
<use xlink:href="#c_ed3e21196fb739f392806f09ca0594ef" x="63.623047"/>
<use xlink:href="#c_1260a2df50f305f3db244e29828f968e" x="95.410156"/>
</g>
</g>
</g>
<g id="xtick5">
<g id="line2d15">
<g ><use style="fill: none; stroke: #000000; stroke-width: 0.500000; stroke-linejoin: round; stroke-linecap: butt;  opacity: 1.000000" xlink:href="#m30e32995789d870ad79a2e54c91cf9c6" x="528.120000" y="398.520000"/>
</g></g>
<g id="line2d16">
<g ><use style="fill: none; stroke: #000000; stroke-width: 0.500000; stroke-linejoin: round; stroke-linecap: butt;  opacity: 1.000000" xlink:href="#m9281cae24120827b11d5ea8a7ad3e96b" x="528.120000" y="44.280000"/>
</g></g>
<g id="text5">
<g style="fill: #000000; opacity: 1.000000" transform="translate(519.627813,411.426250)scale(0.120000)">
<use xlink:href="#c_42baa63129a918535c52adb20d687ea7"/>
<use xlink:href="#c_ed3e21196fb739f392806f09ca0594ef" x="63.623047"/>
<use xlink:href="#c_7a2040fe3b94fcd41d0a72c84e93b115" x="95.410156"/>
</g>
</g>
</g>
</g>
<g id="matplotlib.axis2">
<g id="ytick1">
<g id="line2d17">
<defs><path id="m3400efa6b1638b3fea9e19e898273957" d="M0.000000 0.000000L4.000000 0.000000"/></defs>
<g ><use style="fill: none; stroke: #000000; stroke-width: 0.500000; stroke-linejoin: round; stroke-linecap: butt;  opacity: 1.000000" xlink:href="#m3400efa6b1638b3fea9e19e898273957" x="73.350000" y="398.520000"/>
</g></g>
<g id="line2d18">
<defs><path id="m20b58b2501143cb5e0a5e8f1ef6f1643" d="M0.000000 0.000000L-4.000000 0.000000"/></defs>
<g ><use style="fill: none; stroke: #000000; stroke-width: 0.500000; stroke-linejoin: round; stroke-linecap: butt;  opacity: 1.000000" xlink:href="#m20b58b2501143cb5e0a5e8f1ef6f1643" x="528.120000" y="398.520000"/>
</g></g>
<g id="text6">
<g style="fill: #000000; opacity: 1.000000" transform="translate(42.506250,402.809062)scale(0.120000)">
<use xlink:href="#c_6a8d56c819c37117ab4cf023bec22a5a"/>
<use xlink:href="#c_42baa63129a918535c52adb20d687ea7" x="83.789062"/>
<use xlink:href="#c_ed3e21196fb739f392806f09ca0594ef" x="147.412109"/>
<use xlink:href="#c_1260a2df50f305f3db244e29828f968e" x="179.199219"/>
</g>
</g>
</g>
<g id="ytick2">
<g id="line2d19">
<g ><use style="fill: none; stroke: #000000; stroke-width: 0.500000; stroke-linejoin: round; stroke-linecap: butt;  opacity: 1.000000" xlink:href="#m3400efa6b1638b3fea9e19e898273957" x="73.350000" y="339.480000"/>
</g></g>
<g id="line2d20">
<g ><use style="fill: none; stroke: #000000; stroke-width: 0.500000; stroke-linejoin: round; stroke-linecap: butt;  opacity: 1.000000" xlink:href="#m20b58b2501143cb5e0a5e8f1ef6f1643" x="528.120000" y="339.480000"/>
</g></g>
<g id="text7">
<g style="fill: #000000; opacity: 1.000000" transform="translate(42.256250,343.847188)scale(0.120000)">
<use xlink:href="#c_6a8d56c819c37117ab4cf023bec22a5a"/>
<use xlink:href="#c_42baa63129a918535c52adb20d687ea7" x="83.789062"/>
<use xlink:href="#c_ed3e21196fb739f392806f09ca0594ef" x="147.412109"/>
<use xlink:href="#c_7a2040fe3b94fcd41d0a72c84e93b115" x="179.199219"/>
</g>
</g>
</g>
<g id="ytick3">
<g id="line2d21">
<g ><use style="fill: none; stroke: #000000; stroke-width: 0.500000; stroke-linejoin: round; stroke-linecap: butt;  opacity: 1.000000" xlink:href="#m3400efa6b1638b3fea9e19e898273957" x="73.350000" y="280.440000"/>
</g></g>
<g id="line2d22">
<g ><use style="fill: none; stroke: #000000; stroke-width: 0.500000; stroke-linejoin: round; stroke-linecap: butt;  opacity: 1.000000" xlink:href="#m20b58b2501143cb5e0a5e8f1ef6f1643" x="528.120000" y="280.440000"/>
</g></g>
<g id="text8">
<g style="fill: #000000; opacity: 1.000000" transform="translate(42.506250,284.807187)scale(0.120000)">
<use xlink:href="#c_6a8d56c819c37117ab4cf023bec22a5a"/>
<use xlink:href="#c_7a2040fe3b94fcd41d0a72c84e93b115" x="83.789062"/>
<use xlink:href="#c_ed3e21196fb739f392806f09ca0594ef" x="147.412109"/>
<use xlink:href="#c_1260a2df50f305f3db244e29828f968e" x="179.199219"/>
</g>
</g>
</g>
<g id="ytick4">
<g id="line2d23">
<g ><use style="fill: none; stroke: #000000; stroke-width: 0.500000; stroke-linejoin: round; stroke-linecap: butt;  opacity: 1.000000" xlink:href="#m3400efa6b1638b3fea9e19e898273957" x="73.350000" y="221.400000"/>
</g></g>
<g id="line2d24">
<g ><use style="fill: none; stroke: #000000; stroke-width: 0.500000; stroke-linejoin: round; stroke-linecap: butt;  opacity: 1.000000" xlink:href="#m20b58b2501143cb5e0a5e8f1ef6f1643" x="528.120000" y="221.400000"/>
</g></g>
<g id="text9">
<g style="fill: #000000; opacity: 1.000000" transform="translate(51.850000,225.767187)scale(0.120000)">
<use xlink:href="#c_7a2040fe3b94fcd41d0a72c84e93b115"/>
<use xlink:href="#c_ed3e21196fb739f392806f09ca0594ef" x="63.623047"/>
<use xlink:href="#c_7a2040fe3b94fcd41d0a72c84e93b115" x="95.410156"/>
</g>
</g>
</g>
<g id="ytick5">
<g id="line2d25">
<g ><use style="fill: none; stroke: #000000; stroke-width: 0.500000; stroke-linejoin: round; stroke-linecap: butt;  opacity: 1.000000" xlink:href="#m3400efa6b1638b3fea9e19e898273957" x="73.350000" y="162.360000"/>
</g></g>
<g id="line2d26">
<g ><use style="fill: none; stroke: #000000; stroke-width: 0.500000; stroke-linejoin: round; stroke-linecap: butt;  opacity: 1.000000" xlink:href="#m20b58b2501143cb5e0a5e8f1ef6f1643" x="528.120000" y="162.360000"/>
</g></g>
<g id="text10">
<g style="fill: #000000; opacity: 1.000000" transform="translate(52.100000,166.727187)scale(0.120000)">
<use xlink:href="#c_7a2040fe3b94fcd41d0a72c84e93b115"/>
<use xlink:href="#c_ed3e21196fb739f392806f09ca0594ef" x="63.623047"/>
<use xlink:href="#c_1260a2df50f305f3db244e29828f968e" x="95.410156"/>
</g>
</g>
</g>
<g id="ytick6">
<g id="line2d27">
<g ><use style="fill: none; stroke: #000000; stroke-width: 0.500000; stroke-linejoin: round; stroke-linecap: butt;  opacity: 1.000000" xlink:href="#m3400efa6b1638b3fea9e19e898273957" x="73.350000" y="103.320000"/>
</g></g>
<g id="line2d28">
<g ><use style="fill: none; stroke: #000000; stroke-width: 0.500000; stroke-linejoin: round; stroke-linecap: butt;  opacity: 1.000000" xlink:href="#m20b58b2501143cb5e0a5e8f1ef6f1643" x="528.120000" y="103.320000"/>
</g></g>
<g id="text11">
<g style="fill: #000000; opacity: 1.000000" transform="translate(52.365625,107.687187)scale(0.120000)">
<use xlink:href="#c_42baa63129a918535c52adb20d687ea7"/>
<use xlink:href="#c_ed3e21196fb739f392806f09ca0594ef" x="63.623047"/>
<use xlink:href="#c_7a2040fe3b94fcd41d0a72c84e93b115" x="95.410156"/>
</g>
</g>
</g>
<g id="ytick7">
<g id="line2d29">
<g ><use style="fill: none; stroke: #000000; stroke-width: 0.500000; stroke-linejoin: round; stroke-linecap: butt;  opacity: 1.000000" xlink:href="#m3400efa6b1638b3fea9e19e898273957" x="73.350000" y="44.280000"/>
</g></g>
<g id="line2d30">
<g ><use style="fill: none; stroke: #000000; stroke-width: 0.500000; stroke-linejoin: round; stroke-linecap: butt;  opacity: 1.000000" xlink:href="#m20b58b2501143cb5e0a5e8f1ef6f1643" x="528.120000" y="44.280000"/>
</g></g>
<g id="text12">
<g style="fill: #000000; opacity: 1.000000" transform="translate(52.615625,48.569062)scale(0.120000)">
<use xlink:href="#c_42baa63129a918535c52adb20d687ea7"/>
<use xlink:href="#c_ed3e21196fb739f392806f09ca0594ef" x="63.623047"/>
<use xlink:href="#c_1260a2df50f305f3db244e29828f968e" x="95.410156"/>
</g>
</g>
</g>
</g>
<g id="patch3">
<path style="fill: none; stroke: #000000; stroke-width: 1.000000; stroke-linejoin: round; stroke-linecap: square;  opacity: 1.000000"  d="M73.350000 44.280000L528.120000 44.280000"/>
</g>
<g id="patch4">
<path style="fill: none; stroke: #000000; stroke-width: 1.000000; stroke-linejoin: round; stroke-linecap: square;  opacity: 1.000000"  d="M528.120000 398.520000L528.120000 44.280000"/>
</g>
<g id="patch5">
<path style="fill: none; stroke: #000000; stroke-width: 1.000000; stroke-linejoin: round; stroke-linecap: square;  opacity: 1.000000"  d="M73.350000 398.520000L528.120000 398.520000"/>
</g>
<g id="patch6">
<path style="fill: none; stroke: #000000; stroke-width: 1.000000; stroke-linejoin: round; stroke-linecap: square;  opacity: 1.000000"  d="M73.350000 398.520000L73.350000 44.280000"/>
</g>
</g>
</g>
</svg>
